<svg xmlns="http://www.w3.org/2000/svg" width="634" height="152.6" viewBox="0 0 634 152.6">
  <g id="Group_1" data-name="Group 1" transform="translate(0 18)">
    <text id="FunTUBEZ" transform="translate(0 90)" fill="red" font-size="100" font-family="NirmalaUI-Bold, Nirmala UI" font-weight="700"><tspan x="0" y="0">FunTUBEZ</tspan></text>
    <path id="Icon_ionic-logo-foursquare" data-name="Icon ionic-logo-foursquare" d="M91.1,2.25H19.531C9.654,2.25,6.75,9.7,6.75,14.392V128.453c0,5.285,2.832,7.246,4.422,7.892s5.984,1.193,8.615-1.853c0,0,33.791-39.327,34.371-39.909.878-.88.878-.88,1.756-.88H77.776c9.186,0,10.663-6.57,11.622-10.441C90.2,80.02,99.16,34,102.153,19.4,104.438,8.257,101.614,2.25,91.1,2.25ZM89.4,83.261C90.2,80.02,99.16,34,102.153,19.4M86.876,21.68l-3,15.543a5.017,5.017,0,0,1-4.466,3.484H50.589c-3.137,0-5.382,1.844-5.382,4.988v4.04a5.186,5.186,0,0,0,5.4,5.376H75.2a4.242,4.242,0,0,1,3.911,4.809c-.481,2.376-2.73,13.991-3,15.29a4.64,4.64,0,0,1-4.39,3.523H52.407c-3.517,0-4.58.461-6.932,3.393s-23.512,28.42-23.512,28.42c-.214.247-.424.175-.424-.094v-89a4.48,4.48,0,0,1,4.35-4.363H83.327A3.731,3.731,0,0,1,86.876,21.68Z" transform="translate(531.107 -2.25)" fill="red"/>
  </g>
</svg>
